<?xml version="1.0" encoding="UTF-8"?>
<svg id="Layer_2" data-name="Layer 2" xmlns="http://www.w3.org/2000/svg" viewBox="0 0 251.39 303.32">
  <defs>
    <style>
      .cls-1 {
        fill: #10585c;
      }

      .cls-2 {
        fill: #e6e6e6;
      }
    </style>
  </defs>
  <g id="Brand_board" data-name="Brand board">
    <rect class="cls-2" width="251.39" height="303.32"/>
    <g>
      <path class="cls-1" d="M177.97,132.64c0-10.25-.68-19.75-5.44-28.05-4.97-8.54-10.57-18.08-19.11-23.01-8.3-4.81-19.23-3.5-29.48-3.5s-19.11,2.34-27.38,7.15c-8.54,4.93-14.14,12.04-19.07,20.58-4.81,8.3-10.97,16.57-10.97,26.82s6.08,18.56,10.89,26.86c4.97,8.54,10.09,16.49,18.63,21.46,8.26,4.81,17.6,9.77,27.89,9.77s18.4-7.03,26.7-11.84c8.54-4.97,19.11-8.38,24.08-16.93,4.77-8.3,3.26-19.07,3.26-29.32ZM143.48,146.58c-1.51,6.91-4.53,8.5-9.46,10.33-3.54,1.31-14.18,1.23-17.92,0-5.01-1.63-7.95-3.42-9.46-10.33-.83-3.85-1.31-8.7-1.35-13.63.04-4.89.52-9.73,1.35-13.59,1.51-6.95,4.45-8.7,9.46-10.37,3.73-1.19,14.38-1.27,17.92,0,4.93,1.83,7.95,3.42,9.46,10.37.83,3.85,1.31,8.7,1.35,13.59-.04,4.93-.52,9.77-1.35,13.63Z"/>
      <path class="cls-1" d="M137,131.17c-.56,1.99-1.51,4.37-2.7,6.68-1.23,2.26-2.66,4.45-3.97,6-2.42,2.9-4.25,2.9-6.99,2.54-1.95-.28-6.91-2.94-8.38-4.45-1.91-1.99-2.86-3.54-1.83-7.15.56-1.99,1.55-4.37,2.7-6.68,1.23-2.3,2.66-4.45,4.01-6.04,2.38-2.86,4.21-2.98,6.95-2.5,2.03.36,7.03,2.94,8.38,4.45,1.83,2.07,2.86,3.54,1.83,7.15Z"/>
    </g>
    <g>
      <path class="cls-1" d="M62.84,199.51h-4.68c-.41,0-.75.34-.75.75v23.41c0,.41.34.75.75.75h4.68c8.5,0,13.78-4.75,13.78-12.39s-5.28-12.53-13.78-12.53ZM62.98,201.07c6.14,0,9.67,3.98,9.67,10.93s-3.25,10.86-9.67,10.86h-1.6c-.17,0-.3-.14-.3-.3v-21.18c0-.17.14-.3.3-.3h1.6Z"/>
      <path class="cls-1" d="M102.19,206.88c-2.21,0-4.05,2.32-4.94,4.89l-.02-4.31c0-.08-.06-.15-.14-.15-.57-.01-1.69.02-2.28.02-.05,0-.09,1.11-.09,1.11-.07,1.65-.34,4.58-.78,6.62-.64,2.92-1.7,4.17-2.72,5.38l-.07.09c-1.38,1.64-3.34,2.57-5.36,2.57-3.21,0-4.98-2.31-5.12-6.69,0-.09.03-.17.09-.24.06-.07.15-.1.24-.1l10.41.03c.52.03.95-.38.95-.9v-.2c0-5.31-2.54-8.12-7.35-8.12s-7.88,3.27-7.88,8.96,2.99,8.93,8.19,8.93c4.36,0,7.43-2.16,9.17-6.42l-.13,5.64c0,.26.09.43.38.43h2.74c.18,0,.33-.15.33-.33v-6.98c.1-6.33,2.3-8.69,3.66-8.69.63,0,.76.87.76,1.6v1.85c0,.21.11.4.28.51.18.11.39.12.58.03l2.1-1.02c.13-.06.21-.19.21-.33v-1.06c0-1.93-1.21-3.09-3.23-3.09ZM85.03,208.24c3.14,0,3.76,3.82,3.85,6.1,0,.09-.03.17-.09.24-.06.07-.15.1-.24.1h-7.47c-.09,0-.18-.04-.25-.11-.06-.07-.1-.16-.09-.25.19-2.78,1.1-6.09,4.29-6.09Z"/>
      <path class="cls-1" d="M178.21,214.98c-.64,2.92-1.94,4.25-2.96,5.46l-.07.09c-1.39,1.64-3.34,2.57-5.36,2.57-3.21,0-4.98-2.31-5.12-6.69,0-.09.03-.18.09-.24.07-.07.15-.11.25-.11l10.41.04c.52.03.95-.38.95-.9v-.2c0-5.31-2.54-8.12-7.35-8.12s-7.88,3.26-7.88,8.96,2.99,8.93,8.19,8.93c4.36,0,7.43-2.16,9.17-6.42M169.05,208.24c3.14,0,3.76,3.83,3.85,6.1,0,.09-.04.17-.1.23-.06.07-.15.11-.24.11h-7.47c-.09,0-.18-.04-.25-.11-.06-.07-.09-.16-.09-.25.2-2.78,1.1-6.08,4.3-6.08Z"/>
      <path class="cls-1" d="M125.2,206.88c-2.07,0-3.71.87-4.62,2.46-.07.12-.16.19-.25.19h0c-.09,0-.18-.07-.24-.18-.92-1.54-2.67-2.47-4.67-2.47s-3.67.96-4.53,2.52v-1.72c0-.23-.19-.43-.43-.43h-2.61c-.23,0-.42.19-.42.42v16.32c0,.23.19.42.42.42h2.62c.23,0,.42-.19.42-.42v-9.93c.07-4.17,2-5.65,3.62-5.65,1.86,0,2.93,1.6,2.93,4.39v11.19c0,.23.19.42.42.42h2.62c.23,0,.42-.19.42-.42v-10.35c.08-4.55,2.26-5.23,3.55-5.23,2.45,0,2.96,2.44,2.96,4.49v11.1c0,.23.19.42.42.42h2.65c.23,0,.43-.19.43-.43v-11.12c0-5.56-4.34-5.99-5.68-5.99Z"/>
      <path class="cls-1" d="M181.35,216.07l10.41.03c.52.03.95-.38.95-.9v-.2c0-5.31-2.54-8.12-7.35-8.12s-7.88,3.27-7.88,8.96,2.99,8.93,8.19,8.93c3.52,0,5.39-1.59,6.63-2.98l.15-.17-.92-.76-.14.13c-1.02.96-2.76,2.11-5.27,2.11-3.21,0-4.98-2.31-5.12-6.69,0-.09.03-.17.09-.24.06-.07.15-.1.24-.1ZM185.36,208.24c3.14,0,3.76,3.82,3.85,6.1,0,.09-.03.17-.09.24-.06.07-.15.1-.24.1h-7.47c-.09,0-.18-.04-.25-.11-.06-.07-.1-.16-.09-.25.19-2.78,1.1-6.09,4.29-6.09Z"/>
      <path class="cls-1" d="M157.32,206.88c-1.94,0-4.02,2.37-4.93,4.8l-.09-4.15c0-.15-.12-.26-.27-.26h-2.25c-.15,0-.27.12-.27.27v16.62c0,.15.12.27.27.27h2.92c.15,0,.27-.12.27-.27v-7.05c.1-6.33,2.3-8.69,3.66-8.69.63,0,.76.87.76,1.6v1.85c0,.21.11.4.28.51.18.11.39.12.58.03l1.98-.96c.21-.1.34-.31.34-.54v-.92c0-1.93-1.21-3.09-3.23-3.09Z"/>
      <path class="cls-1" d="M146.98,210.92c-.57-2.59-1.78-3.21-3.56-3.86-1.28-.46-5.19-.46-6.62,0-1.97.64-3.02,1.39-3.56,3.86-.29,1.39-.47,3.13-.49,4.91.02,1.78.2,3.51.49,4.9.54,2.47,1.58,3.22,3.56,3.86.72.23,2.05.35,3.36.35s2.62-.12,3.26-.35c1.77-.65,2.98-1.26,3.55-3.86.29-1.39.47-3.12.49-4.91-.02-1.77-.2-3.51-.49-4.9ZM141.77,223.39c-.66.4-2.63.37-3.33,0-.93-.52-1.48-1.06-1.75-3.21-.15-1.19-.24-2.7-.25-4.22,0-1.52.1-3.03.25-4.22.28-2.15.83-2.7,1.75-3.21.69-.38,2.67-.4,3.33,0,.92.56,1.48,1.06,1.75,3.21.15,1.18.24,2.7.25,4.22,0,1.52-.1,3.02-.25,4.22-.28,2.15-.84,2.64-1.75,3.21Z"/>
    </g>
  </g>
</svg>