<?xml version="1.0" encoding="UTF-8"?>
<svg id="Layer_2" data-name="Layer 2" xmlns="http://www.w3.org/2000/svg" viewBox="0 0 244.39 55.76">
  <defs>
    <style>
      .cls-1, .cls-2 {
        fill: #10585c;
      }

      .cls-3 {
        letter-spacing: -.07em;
      }

      .cls-4 {
        letter-spacing: -.06em;
      }

      .cls-2 {
        font-family: Figtree-Regular, Figtree;
        font-size: 9.78px;
      }

      .cls-5 {
        letter-spacing: 0em;
      }
    </style>
  </defs>
  <g id="Brand_board" data-name="Brand board">
    <g>
      <g>
        <path class="cls-1" d="M36.39,17.87c0-3.35-.22-6.45-1.78-9.16-1.62-2.79-3.45-5.9-6.24-7.51C25.66-.37,22.09.05,18.75.05s-6.24.77-8.94,2.34c-2.79,1.61-4.62,3.93-6.23,6.72-1.57,2.71-3.58,5.41-3.58,8.76s1.98,6.06,3.55,8.77c1.62,2.79,3.3,5.38,6.08,7.01,2.7,1.57,5.75,3.19,9.11,3.19s6.01-2.3,8.72-3.87c2.79-1.62,6.24-2.74,7.86-5.53,1.56-2.71,1.06-6.23,1.06-9.57ZM25.13,22.42c-.49,2.26-1.48,2.78-3.09,3.37-1.15.43-4.63.4-5.85,0-1.63-.53-2.59-1.12-3.09-3.37-.27-1.26-.43-2.84-.44-4.45.01-1.6.17-3.18.44-4.44.49-2.27,1.45-2.84,3.09-3.39,1.22-.39,4.7-.42,5.85,0,1.61.6,2.59,1.12,3.09,3.39.27,1.26.43,2.84.44,4.44-.01,1.61-.17,3.19-.44,4.45Z"/>
        <path class="cls-1" d="M23.01,17.38c-.18.65-.49,1.43-.88,2.18-.4.74-.87,1.45-1.3,1.96-.79.95-1.39.95-2.28.83-.64-.09-2.26-.96-2.74-1.45-.62-.65-.93-1.15-.6-2.34.18-.65.51-1.43.88-2.18.4-.75.87-1.45,1.31-1.97.78-.93,1.38-.97,2.27-.82.66.12,2.3.96,2.74,1.45.6.67.93,1.15.6,2.34Z"/>
      </g>
      <text class="cls-2" transform="translate(47.08 53.61)"><tspan x="0" y="0">Optimizing </tspan><tspan class="cls-4" x="50.61" y="0">Y</tspan><tspan class="cls-5" x="55.93" y="0">our Skin</tspan><tspan class="cls-3" x="91.26" y="0">’</tspan><tspan x="92.37" y="0">s Blueprint</tspan></text>
      <g>
        <path class="cls-1" d="M55,.25h-6.83c-.6,0-1.09.49-1.09,1.09v34.14c0,.6.49,1.09,1.09,1.09h6.83c12.4,0,20.1-6.92,20.1-18.06S67.4.25,55,.25ZM55.2,2.53c8.96,0,14.1,5.81,14.1,15.94s-4.74,15.83-14.1,15.83h-2.34c-.25,0-.44-.2-.44-.44V2.97c0-.25.2-.44.44-.44h2.34Z"/>
        <path class="cls-1" d="M112.38,11.01c-3.22,0-5.9,3.38-7.2,7.13l-.03-6.29c0-.12-.09-.21-.2-.22-.83-.01-2.46.03-3.32.03-.08,0-.13,1.62-.13,1.62-.1,2.41-.49,6.68-1.14,9.65-.93,4.26-2.47,6.08-3.97,7.85l-.11.12c-2.01,2.38-4.87,3.75-7.82,3.75-4.68,0-7.26-3.37-7.46-9.76,0-.13.04-.25.14-.35.09-.1.22-.15.35-.15l15.18.05c.75.05,1.39-.55,1.39-1.31v-.29c0-7.75-3.71-11.84-10.72-11.84s-11.49,4.76-11.49,13.07,4.35,13.02,11.95,13.02c6.35,0,10.84-3.15,13.38-9.36l-.19,8.23c0,.38.13.62.55.62h4c.27,0,.48-.22.48-.48v-10.18c.15-9.24,3.35-12.68,5.33-12.68.91,0,1.1,1.26,1.1,2.33v2.69c0,.3.15.58.41.74.26.16.57.18.84.04l3.07-1.49c.19-.09.3-.28.3-.49v-1.55c0-2.82-1.76-4.5-4.71-4.5ZM87.35,12.98c4.59,0,5.49,5.57,5.62,8.89,0,.13-.04.25-.13.35-.09.1-.22.15-.35.15h-10.9c-.13,0-.26-.06-.36-.16-.09-.1-.14-.23-.13-.36.28-4.05,1.6-8.88,6.26-8.88Z"/>
        <path class="cls-1" d="M223.24,22.82c-.93,4.25-2.82,6.2-4.32,7.96l-.1.13c-2.02,2.39-4.86,3.75-7.82,3.75-4.68,0-7.26-3.37-7.46-9.76-.01-.13.04-.26.13-.35.1-.1.22-.16.36-.16l15.18.05c.75.04,1.39-.56,1.39-1.31v-.29c0-7.74-3.71-11.84-10.72-11.84s-11.49,4.76-11.49,13.06,4.36,13.02,11.95,13.02c6.36,0,10.83-3.15,13.37-9.37M209.88,12.98c4.58,0,5.49,5.58,5.62,8.9,0,.13-.05.25-.14.34-.09.1-.22.16-.35.16h-10.9c-.13,0-.26-.05-.36-.16-.09-.1-.13-.23-.13-.36.29-4.05,1.61-8.87,6.27-8.87Z"/>
        <path class="cls-1" d="M145.93,11c-3.02,0-5.42,1.27-6.74,3.59-.1.17-.23.27-.37.28h0c-.13,0-.26-.1-.36-.27-1.34-2.25-3.89-3.6-6.82-3.6s-5.36,1.4-6.6,3.68v-2.5c0-.34-.28-.62-.62-.62h-3.81c-.34,0-.61.27-.61.61v23.8c0,.34.27.61.61.61h3.82c.34,0,.61-.27.61-.61v-14.49c.11-6.08,2.91-8.24,5.28-8.24,2.71,0,4.27,2.34,4.27,6.41v16.32c0,.34.27.61.61.61h3.82c.34,0,.61-.27.61-.61v-15.1c.11-6.64,3.29-7.63,5.18-7.63,3.57,0,4.32,3.56,4.32,6.55v16.18c0,.34.27.61.61.61h3.86c.34,0,.62-.28.62-.62v-16.22c0-8.1-6.34-8.73-8.28-8.73Z"/>
        <path class="cls-1" d="M227.82,24.4l15.18.05c.75.05,1.39-.55,1.39-1.31v-.29c0-7.75-3.71-11.84-10.72-11.84s-11.49,4.76-11.49,13.07,4.35,13.02,11.95,13.02c5.13,0,7.86-2.32,9.67-4.34l.22-.25-1.35-1.11-.21.2c-1.49,1.4-4.02,3.07-7.68,3.07-4.68,0-7.26-3.37-7.46-9.76,0-.13.04-.25.14-.35.09-.1.22-.15.35-.15ZM233.67,12.98c4.59,0,5.49,5.57,5.62,8.89,0,.13-.04.25-.13.35-.09.1-.22.15-.35.15h-10.9c-.13,0-.26-.06-.36-.16-.09-.1-.14-.23-.13-.36.28-4.05,1.6-8.88,6.26-8.88Z"/>
        <path class="cls-1" d="M192.77,11c-2.82,0-5.87,3.45-7.19,7l-.13-6.05c0-.21-.18-.38-.39-.38h-3.28c-.22,0-.39.17-.39.39v24.23c0,.22.17.39.39.39h4.25c.22,0,.39-.17.39-.39v-10.28c.15-9.24,3.35-12.68,5.33-12.68.91,0,1.1,1.26,1.1,2.33v2.69c0,.3.15.58.41.74.26.16.57.18.84.04l2.88-1.4c.3-.15.49-.45.49-.78v-1.34c0-2.82-1.76-4.5-4.71-4.5Z"/>
        <path class="cls-1" d="M177.69,16.89c-.83-3.78-2.59-4.68-5.19-5.63-1.87-.67-7.56-.67-9.65,0-2.88.93-4.4,2.02-5.19,5.63-.43,2.02-.69,4.57-.71,7.16.03,2.59.29,5.12.71,7.15.79,3.61,2.31,4.7,5.19,5.63,1.05.34,2.98.51,4.9.51s3.81-.17,4.76-.51c2.58-.95,4.35-1.84,5.18-5.63.43-2.02.69-4.55.71-7.16-.03-2.58-.29-5.12-.71-7.15ZM170.11,35.07c-.96.58-3.84.54-4.85,0-1.35-.75-2.15-1.54-2.56-4.68-.22-1.74-.35-3.93-.36-6.15.01-2.22.14-4.42.36-6.15.4-3.14,1.21-3.94,2.56-4.68,1.01-.56,3.89-.58,4.85,0,1.34.82,2.15,1.54,2.56,4.68.22,1.73.35,3.93.36,6.15-.01,2.22-.14,4.41-.36,6.15-.4,3.14-1.22,3.85-2.56,4.68Z"/>
      </g>
    </g>
  </g>
</svg>