<svg id="Layer_1" data-name="Layer 1" xmlns="http://www.w3.org/2000/svg" viewBox="0 0 566.93 184.25"><defs><style>.cls-1{fill:#424c34;}</style></defs><path class="cls-1" d="M181.53,117.46h2.33l-1.25,8.26a5.8,5.8,0,0,1,3.5-1.38,5,5,0,0,1,3.72,1.63,5.51,5.51,0,0,1,1.55,3.91,5.72,5.72,0,0,1-1.73,4.12,5.39,5.39,0,0,1-4,1.78,4.41,4.41,0,0,1-2.5-.77,4.58,4.58,0,0,1-1.68-2l-.35,2.44H178.8Zm7.38,12.34a3.57,3.57,0,0,0-1-2.59,3.4,3.4,0,0,0-2.51-1.07,3.45,3.45,0,0,0-2.62,1.16,4,4,0,0,0-1.08,2.84,3.5,3.5,0,0,0,1.06,2.57,3.44,3.44,0,0,0,2.55,1.06,3.38,3.38,0,0,0,2.55-1.19A4,4,0,0,0,188.91,129.8Z"/><path class="cls-1" d="M193.91,124.61h2.35l2.3,6.81,3.94-6.81h2.58l-9.23,16.1h-2.66l3.85-6.65Z"/><path class="cls-1" d="M215.75,133.69l1.27-1.61a7.47,7.47,0,0,0,1.41,1.22,2.64,2.64,0,0,0,1.43.39,1.84,1.84,0,0,0,1.09-.31.92.92,0,0,0,.45-.76c0-.49-.49-1-1.44-1.52a6.28,6.28,0,0,1-2-1.57,3,3,0,0,1-.57-1.85,3.12,3.12,0,0,1,1.05-2.36,3.63,3.63,0,0,1,2.54-1,5.87,5.87,0,0,1,3.29,1.41L223,127.36a4.33,4.33,0,0,0-2.17-.94,1.4,1.4,0,0,0-1,.35,1.17,1.17,0,0,0-.39.9,1.14,1.14,0,0,0,.34.81,7.25,7.25,0,0,0,1.43,1,5.32,5.32,0,0,1,1.65,1.34,2.79,2.79,0,0,1,.57,1.78,2.94,2.94,0,0,1-1,2.31,3.88,3.88,0,0,1-2.64.92,4.27,4.27,0,0,1-2.06-.5A7.94,7.94,0,0,1,215.75,133.69Z"/><path class="cls-1" d="M235.53,132.45l-.41,2.75a9.43,9.43,0,0,1-2.62.58,4.8,4.8,0,0,1-3.7-1.66,5.84,5.84,0,0,1-1.51-4.09,5.54,5.54,0,0,1,1.64-4,5.42,5.42,0,0,1,4-1.66,7.12,7.12,0,0,1,3.47,1l-.37,2.45a6.35,6.35,0,0,0-3.07-1.13,3.18,3.18,0,0,0-2.38,1,3.54,3.54,0,0,0-.11,4.79,2.65,2.65,0,0,0,2.06,1A7.12,7.12,0,0,0,235.53,132.45Z"/><path class="cls-1" d="M240.6,124.61h2.3l-1.54,10.86h-2.3Zm.45-4.88a1.47,1.47,0,0,1,1.47-1.47,1.46,1.46,0,0,1,1.06.43,1.48,1.48,0,0,1-1.06,2.53,1.39,1.39,0,0,1-1-.44A1.43,1.43,0,0,1,241.05,119.73Z"/><path class="cls-1" d="M256.94,130.62h-8.61a4,4,0,0,0,1,2.5,3.11,3.11,0,0,0,2.29.87,4.59,4.59,0,0,0,3.13-1.72l1.32,1.34a5.75,5.75,0,0,1-8.43.62,5.29,5.29,0,0,1-1.55-3.95,5.77,5.77,0,0,1,1.7-4.2,5.6,5.6,0,0,1,4.15-1.74,4.73,4.73,0,0,1,3.54,1.53,5.2,5.2,0,0,1,1.46,3.72C257,130,257,130.29,256.94,130.62Zm-8.45-1.72h6.36a2.87,2.87,0,0,0-3-2.67,3.38,3.38,0,0,0-2.15.7A3.32,3.32,0,0,0,248.49,128.9Z"/><path class="cls-1" d="M259.68,135.47l1.59-10.86h2.3l-.26,1.93a11.08,11.08,0,0,1,2-1.66,3.78,3.78,0,0,1,2-.54,2.89,2.89,0,0,1,2.12,1,3.11,3.11,0,0,1,.93,2.21,2.91,2.91,0,0,1,0,.47l-1.14,7.47h-2.27l1-6.91a2.34,2.34,0,0,0,0-.45,1.84,1.84,0,0,0-.49-1.34,1.63,1.63,0,0,0-1.27-.52,2.84,2.84,0,0,0-2.24,1.3,7.52,7.52,0,0,0-1.32,3.44l-.65,4.48Z"/><path class="cls-1" d="M282.1,132.45l-.41,2.75a9.38,9.38,0,0,1-2.61.58,4.81,4.81,0,0,1-3.71-1.66,5.84,5.84,0,0,1-1.51-4.09,5.51,5.51,0,0,1,1.65-4,5.39,5.39,0,0,1,4-1.66,7.09,7.09,0,0,1,3.47,1l-.37,2.45a6.31,6.31,0,0,0-3.07-1.13,3.18,3.18,0,0,0-2.37,1,3.55,3.55,0,0,0-.12,4.79,2.66,2.66,0,0,0,2.07,1A7.09,7.09,0,0,0,282.1,132.45Z"/><path class="cls-1" d="M296,130.62h-8.61a4,4,0,0,0,1.05,2.5,3.09,3.09,0,0,0,2.29.87,4.59,4.59,0,0,0,3.13-1.72l1.32,1.34a5.75,5.75,0,0,1-8.43.62,5.29,5.29,0,0,1-1.55-3.95,5.77,5.77,0,0,1,1.7-4.2,5.6,5.6,0,0,1,4.15-1.74,4.73,4.73,0,0,1,3.54,1.53,5.2,5.2,0,0,1,1.46,3.72C296.09,130,296.07,130.29,296,130.62Zm-8.45-1.72H294a2.87,2.87,0,0,0-3-2.67,3.38,3.38,0,0,0-2.15.7A3.32,3.32,0,0,0,287.59,128.9Z"/><path class="cls-1" d="M303.05,124.61l-.18,1.22a5.89,5.89,0,0,1,3.58-1.49A4.89,4.89,0,0,1,310.1,126a5.18,5.18,0,0,1,1.58,3.75A6,6,0,0,1,310,134a5.24,5.24,0,0,1-4,1.79,4.41,4.41,0,0,1-4.26-2.66l-1.13,7.59h-2.3l2.36-16.1Zm6.14,5.14a3.54,3.54,0,0,0-1-2.5,3.23,3.23,0,0,0-2.42-1,3.42,3.42,0,0,0-2.69,1.16,4.3,4.3,0,0,0-1.05,3,3.36,3.36,0,0,0,1.07,2.44,3.42,3.42,0,0,0,2.48,1.06,3.26,3.26,0,0,0,2.54-1.21A4.25,4.25,0,0,0,309.19,129.75Z"/><path class="cls-1" d="M313.88,135.47l1.61-10.86h2.36l-.34,2.31a9.43,9.43,0,0,1,.76-1.14,3.72,3.72,0,0,1,1.21-1.15,3.36,3.36,0,0,1,1.48-.29,5.73,5.73,0,0,1,1.74.35l-1.05,2.25a4.51,4.51,0,0,0-1.62-.38,2.5,2.5,0,0,0-2,.85,6,6,0,0,0-1,2.89l-.77,5.17Z"/><path class="cls-1" d="M335.48,130.62h-8.61a4,4,0,0,0,1.05,2.5,3.08,3.08,0,0,0,2.28.87,4.56,4.56,0,0,0,3.13-1.72l1.33,1.34a5.75,5.75,0,0,1-8.43.62,5.3,5.3,0,0,1-1.56-3.95,5.74,5.74,0,0,1,1.71-4.2,5.6,5.6,0,0,1,4.15-1.74,4.73,4.73,0,0,1,3.54,1.53,5.2,5.2,0,0,1,1.46,3.72C335.53,130,335.51,130.29,335.48,130.62ZM327,128.9h6.36a2.87,2.87,0,0,0-3-2.67,3.37,3.37,0,0,0-2.15.7A3.32,3.32,0,0,0,327,128.9Z"/><path class="cls-1" d="M338.22,135.47l1.58-10.86h2.3l-.25,1.93a10.43,10.43,0,0,1,2-1.66,3.78,3.78,0,0,1,2-.54,2.85,2.85,0,0,1,2.11,1,3.08,3.08,0,0,1,.94,2.21,2.91,2.91,0,0,1,0,.47l-1.14,7.47h-2.27l1-6.91a2.57,2.57,0,0,0,0-.45,1.88,1.88,0,0,0-.48-1.34,1.63,1.63,0,0,0-1.27-.52,2.84,2.84,0,0,0-2.24,1.3,7.52,7.52,0,0,0-1.32,3.44l-.65,4.48Z"/><path class="cls-1" d="M362.51,130.62H353.9a4,4,0,0,0,1.05,2.5,3.12,3.12,0,0,0,2.29.87,4.59,4.59,0,0,0,3.13-1.72l1.32,1.34a5.75,5.75,0,0,1-8.43.62,5.29,5.29,0,0,1-1.55-3.95,5.77,5.77,0,0,1,1.7-4.2,5.61,5.61,0,0,1,4.15-1.74,4.73,4.73,0,0,1,3.54,1.53,5.2,5.2,0,0,1,1.46,3.72C362.56,130,362.54,130.29,362.51,130.62Zm-8.45-1.72h6.36a2.87,2.87,0,0,0-3-2.67,3.27,3.27,0,0,0-3.34,2.67Z"/><path class="cls-1" d="M366.81,124.61h2.33l-1.08,6.91,0,.37c0,1.09.68,1.64,2.05,1.64a3,3,0,0,0,1.89-.62,2.37,2.37,0,0,0,.94-1.55l1-6.75h2.27l-1,6.78a4.86,4.86,0,0,1-1.74,3.2,5.55,5.55,0,0,1-3.61,1.19,4.31,4.31,0,0,1-2.91-1,3.24,3.24,0,0,1-1.2-2.53,7.56,7.56,0,0,1,.12-1.45c.07-.4.12-.65.13-.73Z"/><path class="cls-1" d="M378.63,135.47l1.62-10.86h2.35l-.34,2.31a9.43,9.43,0,0,1,.76-1.14,3.64,3.64,0,0,1,1.22-1.15,3.29,3.29,0,0,1,1.47-.29,5.73,5.73,0,0,1,1.74.35l-1.05,2.25a4.51,4.51,0,0,0-1.62-.38,2.5,2.5,0,0,0-2,.85,6,6,0,0,0-1,2.89l-.77,5.17Z"/><path class="cls-1" d="M84.05,69.53V62.14c0-3.76,0-7.53,0-11.3,0-.87.24-1.14,1.13-1.13,5.61,0,11.22,0,16.83,0A24.78,24.78,0,0,1,126.11,67.3c3.52,11.17,1.79,21.37-6.4,30-3.93,4.17-9.08,6.2-14.62,7.18a48.7,48.7,0,0,1-16.25.15c-14.86-2.4-17.12-17-11.2-25.77a54.88,54.88,0,0,1,7.52-8.23,81.65,81.65,0,0,0,5.91-6.15,20.27,20.27,0,0,0,4.63-9.6,2.45,2.45,0,0,1,.18-.6,3.34,3.34,0,0,1,.37-.49,25,25,0,0,1-.1,7.64,27.7,27.7,0,0,1-6.43,13c-2.15,2.51-4.51,4.85-6.15,7.76-2.18,3.86-3.44,7.92-2.18,12.37A12.06,12.06,0,0,0,95.94,103c8.45-2,14.06-7.35,17.8-14.94a37.19,37.19,0,0,0,3.8-18.48c-.44-9.34-6.4-16-16-17.92a31.19,31.19,0,0,0-5.61-.55c-.45,0-.93-.11-1,.59-1,6.61-4.87,11.62-9.12,16.42-.46.53-.93,1-1.4,1.56Z"/><path class="cls-1" d="M99.6,55.45c.59-.59.77.06,1,.37A13.45,13.45,0,0,1,103.33,63a5.38,5.38,0,0,0,3.82,5.26,30.28,30.28,0,0,1,2.93,1.41c.94.47,1.19,1.12.56,2a9.66,9.66,0,0,1-.86,1.23c-.76.79-1,1.23-.18,2.43a5.14,5.14,0,0,1,.31,4.21,3,3,0,0,0-.2,2.45,6.08,6.08,0,0,1,.37,2.71c-.11,1.52-.7,2.13-2.22,2.1a25.76,25.76,0,0,0-9.61,1.52c-2,.75-4,1.66-4.84,3.86-1,2.45-.07,4.85,2.44,6.45.84.53,1.77.91,2.88,1.47a13.24,13.24,0,0,1-5.94,2.26c-4.43.44-6.91-2.75-5.39-6.95,1.36-3.78,4.35-5.94,7.85-7.48a35,35,0,0,1,11.17-2.67c2.14-.18,2.53-.75,1.91-2.83a4.17,4.17,0,0,0-.36-.93,1.35,1.35,0,0,1,.17-1.89c.85-.93.74-1.14-.51-1.49,0-.43.39-.62.6-.91.5-.68.46-1.13-.29-1.64-1.16-.78-1.17-1.24-.3-2.34,1.81-2.31,1.81-2.3-.82-3.59-.6-.29-1.17-.64-1.75-1a5.35,5.35,0,0,1-3-4.44,51.21,51.21,0,0,0-1-5.18.75.75,0,0,0-.3-.88l-1-2.23C100,55.69,100,55.48,99.6,55.45Z"/><path class="cls-1" d="M102.14,67.45c-1.65,2.2-4.58,2.53-6.09.62a4.66,4.66,0,0,0,3.79-.75C100.5,67,101.19,67.82,102.14,67.45Z"/><path class="cls-1" d="M99.19,54.93A.81.81,0,0,1,99,54c.4.06.55.39.75.67l-.26.33v0Z"/><path class="cls-1" d="M100.79,58.19a.75.75,0,0,1,.3.88A.89.89,0,0,1,100.79,58.19Z"/><path class="cls-1" d="M99.6,55.45c.41,0,.39.24.22.51A.44.44,0,0,1,99.6,55.45Z"/><path class="cls-1" d="M99.45,55l.26-.33C99.86,55,99.76,55.05,99.45,55Z"/><path class="cls-1" d="M99.19,54.93l.27.09c0,.06-.07.12-.11.17Z"/><path class="cls-1" d="M177.05,88.75c-.15,2.41-.29,3.83-.29,6.45s.14,4,.29,6.53h-5l-8.65-.15h-4.89c-7.23,0-11.35.15-16.73.15V101c2.34,0,3.54-1.92,3.54-5.68V58.47c0-3.76-1.2-5.67-3.54-5.67v-.71c5.1,0,9.07.14,15.88.14s10.71-.14,17.94-.14c-.14,2.27-.29,3.55-.29,5.81s.15,3.62.29,5.75h-1.07c0-6.95-4.53-10.43-13.68-10.43h-3.62c-2,0-3,1-3,3.05V75.35h1.85c3.76,0,6.24-1.7,7.51-5.18h.93c-.15,2.2-.29,3.48-.29,5.67s.14,3.48.29,5.75h-.93c-1.27-3.48-3.75-5.18-7.51-5.18h-1.85V97.54c0,2.06,1.07,3,3.2,3h4.89c9.14,0,13.68-4,13.68-11.84Z"/><path class="cls-1" d="M218.67,76.84c6.24,1.34,8.65,7.94,10.42,13.33,1.35,4.18,1.71,7,3.27,8.29a2.21,2.21,0,0,0,1.56.57,3.31,3.31,0,0,0,2.76-1.91l.21,1.06a8.7,8.7,0,0,1-7.51,4.33c-5.82.07-7.87-5.25-9.08-10.07a31.84,31.84,0,0,0-4-9.5c-2.55-4.19-4.25-5.32-7.3-5.32h-4.19V95.34c0,3.76,1.21,5.68,3.55,5.68v.71c-3.26-.15-5.25-.29-8.51-.29s-5.18.14-7.44.29V101c2.33,0,3.54-1.92,3.54-5.68V58.47c0-3.76-1.21-5.67-3.54-5.67v-.71c.63.07,1.91.07,3.75.07s3.48.07,5,.07c3.19,0,6.66-.14,9.14-.14,13,0,20.36,4.25,20.36,11.77C230.73,70,225.83,75.06,218.67,76.84Zm-7.73-.29c5.67,0,10.57-5.88,10.57-12.83,0-6.45-4.26-10.57-10.85-10.57h-4.19c-1.06,0-1.63.57-1.63,1.78V76.55Z"/><path class="cls-1" d="M255.47,56.34v39c0,2.34,1.64,4.26,5,5.68v.71c-1.92-.15-3.26-.29-5.53-.29s-3.62.14-5.46.29V101c3.33-1.42,5-3.34,5-5.68V58.47c0-3.76-1.2-5.67-3.54-5.67v-.71c2.48.14,4,.28,6.45.28s4-.14,5.6-.28L278,86.55l15.11-34.46c2.55.14,4,.28,6.52.28a54.45,54.45,0,0,0,5.6-.28v.71c-2.34,0-3.54,1.91-3.54,5.67V95.34c0,3.76,1.2,5.68,3.54,5.68v.71c-2.27-.15-4.11-.29-7.44-.29s-5.25.14-8.51.29V101c2.34,0,3.54-1.92,3.54-5.68V55.42L275,96.19h-2Z"/><path class="cls-1" d="M345.67,51.38c15.25,0,25.39,10.21,25.39,25.53s-10.14,25.52-25.39,25.52-25.38-10.21-25.38-25.52S330.43,51.38,345.67,51.38Zm.07,50c9.65,0,16.1-9.86,16.1-24.67,0-14.61-6.24-24.26-16-24.26s-16.38,9.65-16.38,24.4C329.5,91.44,336,101.37,345.74,101.37Z"/><path class="cls-1" d="M412.33,76.84c6.24,1.34,8.65,7.94,10.42,13.33,1.35,4.18,1.7,7,3.26,8.29a2.24,2.24,0,0,0,1.56.57,3.31,3.31,0,0,0,2.77-1.91l.21,1.06a8.7,8.7,0,0,1-7.51,4.33c-5.82.07-7.88-5.25-9.08-10.07a31.84,31.84,0,0,0-4-9.5c-2.55-4.19-4.26-5.32-7.3-5.32H398.5V95.34c0,3.76,1.21,5.68,3.55,5.68v.71c-3.27-.15-5.25-.29-8.51-.29s-5.18.14-7.45.29V101c2.34,0,3.55-1.92,3.55-5.68V58.47c0-3.76-1.21-5.67-3.55-5.67v-.71c.64.07,1.92.07,3.76.07s3.47.07,5,.07c3.19,0,6.66-.14,9.14-.14,13.05,0,20.35,4.25,20.35,11.77C424.38,70,419.49,75.06,412.33,76.84Zm-7.73-.29c5.67,0,10.56-5.88,10.56-12.83,0-6.45-4.25-10.57-10.84-10.57h-4.19c-1.06,0-1.63.57-1.63,1.78V76.55Z"/><path class="cls-1" d="M479.05,88.75c-.14,2.41-.28,3.83-.28,6.45s.14,4,.28,6.53h-5l-8.65-.15h-4.89c-7.24,0-11.35.15-16.74.15V101c2.34,0,3.55-1.92,3.55-5.68V58.47c0-3.76-1.21-5.67-3.55-5.67v-.71c5.11,0,9.08.14,15.89.14s10.7-.14,17.94-.14c-.15,2.27-.29,3.55-.29,5.81s.14,3.62.29,5.75h-1.07c0-6.95-4.54-10.43-13.68-10.43h-3.62c-2.06,0-3,1-3,3.05V75.35h1.85a7.29,7.29,0,0,0,7.51-5.18h.92c-.14,2.2-.28,3.48-.28,5.67s.14,3.48.28,5.75h-.92a7.29,7.29,0,0,0-7.51-5.18h-1.85V97.54c0,2.06,1.07,3,3.19,3h4.9c9.14,0,13.68-4,13.68-11.84Z"/></svg>