<svg id="Layer_1" data-name="Layer 1" xmlns="http://www.w3.org/2000/svg" viewBox="0 0 283.46 283.46"><defs><style>.cls-1{fill:#424c34;}</style></defs><path class="cls-1" d="M77.24,111.82V84.07c0-14.15.08-28.31-.07-42.46,0-3.27.89-4.28,4.23-4.25,21.08.15,42.15.06,63.23.08,42.33.06,77.81,25.57,90.56,66,13.23,42,6.75,80.25-24,112.83-14.77,15.64-34.13,23.3-54.94,27a182,182,0,0,1-61,.55c-55.8-9-64.3-63.89-42.07-96.79,7.92-11.72,18.24-21.16,28.26-30.89A312.48,312.48,0,0,0,103.58,93c8.86-10.56,15-22.4,17.39-36.05a11,11,0,0,1,.69-2.25A12.92,12.92,0,0,1,123,52.84c1.21,10.15,1.37,19.44-.35,28.71-3.45,18.54-12,34.55-24.18,48.81-8,9.43-16.9,18.23-23.07,29.15C67.23,174,62.49,189.26,67.25,206c6.72,23.6,30.49,37.13,54.63,31.45,31.75-7.46,52.8-27.61,66.86-56.14A139.65,139.65,0,0,0,203,111.87C201.37,76.82,179,51.81,142.77,44.56a119.6,119.6,0,0,0-21.09-2.05c-1.67,0-3.48-.4-3.87,2.22-3.7,24.83-18.28,43.65-34.23,61.7-1.74,2-3.52,3.89-5.28,5.84Z"/><path class="cls-1" d="M135.64,59c2.22-2.22,2.88.22,3.71,1.37,5.84,8.06,9.79,17.11,10.31,27,.54,10.15,5.09,16.3,14.34,19.75,3.8,1.42,7.35,3.53,11,5.33s4.47,4.2,2.1,7.58a37.78,37.78,0,0,1-3.25,4.61c-2.83,3-3.64,4.61-.65,9.13,2.42,3.66,3.14,10.7,1.17,15.81-1.28,3.31-2.13,5.86-.79,9.2a22.77,22.77,0,0,1,1.4,10.2c-.41,5.69-2.61,8-8.34,7.85a96.92,96.92,0,0,0-36.09,5.73c-7.61,2.8-14.92,6.22-18.18,14.51-3.62,9.2-.26,18.22,9.15,24.2,3.16,2,6.67,3.44,10.82,5.54-7.13,4.6-14.32,7.69-22.31,8.49-16.63,1.65-25.93-10.33-20.24-26.11,5.12-14.21,16.34-22.31,29.48-28.1,13.35-5.88,27.5-8.74,42-10,8-.7,9.51-2.84,7.16-10.65a13.48,13.48,0,0,0-1.36-3.48c-1.69-2.61-1.55-4.68.66-7.11,3.17-3.49,2.76-4.29-1.91-5.58,0-1.62,1.44-2.35,2.24-3.44,1.86-2.54,1.74-4.25-1.09-6.16-4.35-2.94-4.4-4.66-1.14-8.79,6.81-8.65,6.8-8.63-3.06-13.47-2.26-1.11-4.4-2.42-6.6-3.64-6.57-3.67-10.65-8.76-11.35-16.7-.57-6.54-2.33-13-3.57-19.44a2.85,2.85,0,0,0-1.13-3.3l-3.65-8.37C137.09,59.83,137.18,59,135.64,59Z"/><path class="cls-1" d="M145.18,104c-6.21,8.29-17.21,9.51-22.89,2.34,5.8,1.57,10-.4,14.26-2.82C139,102.11,141.61,105.38,145.18,104Z"/><path class="cls-1" d="M134.08,57a3.13,3.13,0,0,1-.86-3.55c1.52.23,2.09,1.48,2.82,2.52l-1,1.25,0,.12Z"/><path class="cls-1" d="M140.11,69.23a2.85,2.85,0,0,1,1.13,3.3A3.3,3.3,0,0,1,140.11,69.23Z"/><path class="cls-1" d="M135.64,59c1.54.09,1.45.88.82,1.91A1.67,1.67,0,0,1,135.64,59Z"/><path class="cls-1" d="M135.08,57.2,136,56C136.62,57.07,136.25,57.44,135.08,57.2Z"/><path class="cls-1" d="M134.08,57l1,.34-.41.64Z"/></svg>